<?xml version="1.0" encoding="UTF-8"?>
<svg id="Layer_1" xmlns="http://www.w3.org/2000/svg" xmlns:xlink="http://www.w3.org/1999/xlink" viewBox="0 0 500 175"><defs><style>.cls-1{fill:#fff;}.cls-1,.cls-2{stroke-width:0px;}.cls-2{fill:url(#radial-gradient);}</style><radialGradient id="radial-gradient" cx="84.05" cy="100.96" fx="84.05" fy="100.96" r="104.18" gradientTransform="translate(-2.38) scale(.99 1)" gradientUnits="userSpaceOnUse"><stop offset="0" stop-color="#474299"/><stop offset=".5" stop-color="#009983"/><stop offset=".8" stop-color="#00b484"/><stop offset="1" stop-color="#1eb481"/></radialGradient></defs><path class="cls-2" d="M141.91,36.9v-18.88c0-2.52-2.79-3.46-4.35-1.89l-17.71,17.94c-.62.63-1.24,1.89-1.24,2.83v16.05c0,.94-.31,1.89-1.24,2.83l-25.48,26.13c-.93.94-2.49,1.58-3.73.94-3.11-.94-6.53-1.26-9.95-.31-6.84,1.58-12.12,7.24-13.68,14.16-2.79,13.53,8.7,25.49,22.38,22.66,6.84-1.58,12.43-6.93,13.98-13.85.93-3.46.62-6.93-.31-10.08-.31-1.26,0-2.83.93-3.77,5.28-5.35,21.45-21.72,25.8-26.13.62-.63,1.56-1.26,2.79-1.26h15.85c.93,0,2.18-.31,2.79-1.26l17.4-17.62c1.56-1.58.62-4.41-1.86-4.41h-18.65c-2.18,0-3.73-1.89-3.73-4.09h0ZM116.73,90.72c1.86,5.98,1.86,12.59,0,19.51-3.73,13.53-15.23,23.92-28.9,25.8-23.62,3.46-43.51-16.68-40.09-40.6,1.86-13.85,12.12-25.49,25.48-29.27,6.84-1.89,13.36-1.58,19.27,0,.93.31,1.56,0,2.49-.63l12.43-12.59c1.24-1.26.93-3.15-.62-3.77-8.7-4.41-18.65-6.29-29.22-5.35-25.79,2.83-47.23,23.61-50.34,49.73-4.66,37.14,26.1,68.3,62.78,63.58,25.8-3.15,46.31-24.86,48.79-50.99.93-10.7-.93-20.78-5.28-29.59-.62-1.58-2.49-1.58-3.73-.63l-12.43,12.59c-.93.63-.93,1.58-.62,2.21h0Z"/><path class="cls-1" d="M187.02,87.76c2.02-1.16,4.33-1.74,6.93-1.74,2.18,0,4.2.45,6.06,1.37,1.86.92,3.56,2.31,5.1,4.2l8.13-7.51c-2.34-3.02-5.14-5.18-8.41-6.5-3.27-1.32-7.05-1.98-11.36-1.98-4.89,0-9.26,1.04-13.11,3.11-3.86,2.07-6.9,4.92-9.13,8.56-2.23,3.63-3.35,7.79-3.35,12.47s1.12,8.76,3.35,12.4c2.23,3.63,5.27,6.49,9.13,8.56,3.85,2.07,8.23,3.11,13.11,3.11,4.31,0,8.09-.68,11.36-2.02,3.27-1.34,6.07-3.5,8.41-6.46l-8.13-7.51c-1.54,1.89-3.24,3.28-5.1,4.2-1.86.92-3.88,1.37-6.06,1.37-2.6,0-4.91-.58-6.93-1.74-2.02-1.16-3.6-2.76-4.75-4.81-1.14-2.05-1.71-4.42-1.71-7.1s.57-5.14,1.71-7.18c1.14-2.05,2.72-3.65,4.75-4.81Z"/><path class="cls-1" d="M249.85,84.04c-.99-1.1-2.1-2.05-3.35-2.79-2.71-1.61-5.87-2.42-9.49-2.42-4.03,0-7.68.92-10.92,2.74-3.24,1.83-5.81,4.42-7.7,7.75-1.89,3.34-2.83,7.3-2.83,11.87s.94,8.46,2.83,11.79c1.89,3.34,4.46,5.94,7.7,7.8,3.24,1.86,6.88,2.79,10.92,2.79,3.78,0,7-.81,9.69-2.42,1.42-.85,2.65-1.95,3.71-3.27v5.05h11.88v-43.45h-12.44v4.57h0ZM248.61,107.61c-.98,1.81-2.29,3.19-3.95,4.16-1.64.97-3.48,1.45-5.5,1.45s-3.94-.48-5.58-1.45c-1.65-.97-2.96-2.36-3.95-4.16-.98-1.81-1.48-3.94-1.48-6.42s.49-4.68,1.48-6.46c.98-1.78,2.3-3.15,3.95-4.12,1.65-.97,3.51-1.45,5.58-1.45s3.86.49,5.5,1.45c1.65.97,2.96,2.34,3.95,4.12.98,1.78,1.48,3.93,1.48,6.46s-.49,4.62-1.48,6.42Z"/><path class="cls-1" d="M300.56,100.96c0,2.63-.42,4.83-1.27,6.58-.85,1.74-2.02,3.04-3.51,3.87-1.49.83-3.19,1.26-5.1,1.26-2.77,0-4.9-.85-6.42-2.55-1.51-1.69-2.27-4.34-2.27-7.95v-22.69h-12.44v24.55c0,4.47.77,8.14,2.31,11.02,1.54,2.88,3.71,5.02,6.5,6.42,2.79,1.4,5.97,2.1,9.53,2.1,3.3,0,6.34-.77,9.13-2.3,1.63-.9,3.01-2.09,4.18-3.5v5.15h11.8v-43.45h-12.44v21.48h-.02Z"/><path class="cls-1" d="M352.1,100.11c-1.51-.89-3.2-1.58-5.06-2.06-1.86-.48-3.71-.85-5.55-1.09-1.84-.24-3.52-.53-5.06-.85-1.54-.32-2.78-.76-3.71-1.29-.93-.53-1.39-1.34-1.39-2.42,0-1.18.64-2.15,1.92-2.9,1.27-.76,3.3-1.13,6.06-1.13,1.97,0,4,.23,6.1.69,2.1.45,4.18,1.31,6.26,2.55l4.15-8.96c-2.02-1.24-4.54-2.18-7.58-2.82-3.03-.65-6-.97-8.93-.97-4.15,0-7.71.61-10.68,1.82-2.98,1.21-5.25,2.87-6.82,4.97-1.57,2.1-2.36,4.52-2.36,7.26,0,2.47.47,4.5,1.4,6.05.93,1.56,2.17,2.8,3.71,3.71,1.54.92,3.24,1.6,5.1,2.06,1.86.45,3.71.82,5.55,1.09,1.84.27,3.52.54,5.06.81,1.54.27,2.78.66,3.71,1.17s1.39,1.28,1.39,2.31c0,1.24-.6,2.21-1.79,2.9-1.2.7-3.23,1.05-6.1,1.05-2.6,0-5.25-.39-7.94-1.17-2.69-.78-5.01-1.79-6.98-3.03l-4.15,9.04c1.96,1.34,4.63,2.47,8.02,3.35,3.38.89,6.9,1.34,10.56,1.34,4.31,0,7.95-.6,10.96-1.78,3.01-1.18,5.31-2.81,6.9-4.89,1.59-2.07,2.39-4.45,2.39-7.15,0-2.47-.47-4.48-1.43-6.02-.96-1.53-2.19-2.74-3.71-3.63h0Z"/><path class="cls-1" d="M394.45,81.53c-3.38-1.81-7.16-2.71-11.36-2.71s-8.26.95-11.72,2.87c-3.45,1.91-6.18,4.55-8.17,7.91-2,3.36-2.99,7.23-2.99,11.59s1.01,8.14,3.03,11.51c2.02,3.36,4.88,6.02,8.57,7.96,3.69,1.94,7.99,2.9,12.88,2.9,3.88,0,7.31-.61,10.28-1.82,2.98-1.21,5.45-2.95,7.42-5.21l-6.62-7.26c-1.44,1.4-3.01,2.45-4.75,3.15-1.72.7-3.74,1.05-6.02,1.05-2.55,0-4.77-.47-6.65-1.42-1.89-.94-3.35-2.31-4.39-4.12-.56-.98-.96-2.05-1.21-3.19h32.43c.05-.53.11-1.12.16-1.74.05-.61.08-1.17.08-1.66,0-4.68-.98-8.71-2.95-12.07-1.97-3.36-4.64-5.95-8.02-7.75h0ZM377.54,89.77c1.62-.94,3.5-1.42,5.63-1.42s3.99.47,5.58,1.42c1.59.94,2.84,2.25,3.74,3.92.6,1.09.92,2.37,1.13,3.71h-20.97c.21-1.34.54-2.59,1.12-3.68.91-1.69,2.16-3.02,3.79-3.96h0Z"/><rect class="cls-1" x="410.99" y="63" width="12.44" height="59.91"/><path class="cls-1" d="M464.8,79.48l-12.12,29.51-12.04-29.51h-12.84l18.57,43.8-.15.36c-.85,1.94-1.79,3.32-2.83,4.16-1.04.84-2.43,1.26-4.18,1.26-1.22,0-2.46-.24-3.71-.73-1.25-.48-2.36-1.16-3.31-2.02l-4.54,8.96c1.38,1.24,3.16,2.21,5.34,2.9,2.18.69,4.39,1.05,6.62,1.05,2.6,0,4.98-.4,7.14-1.21,2.15-.81,4.12-2.21,5.9-4.2,1.78-1.99,3.37-4.74,4.75-8.23l19.37-46.11h-11.96,0Z"/></svg>