<svg width="141" height="44" viewBox="0 0 141 44" fill="none" xmlns="http://www.w3.org/2000/svg">
<g clip-path="url(#clip0_28_2550)">
<path d="M36.0788 6.66326V0.823571C36.0788 0.0443956 35.2031 -0.247451 34.7156 0.239878L29.1665 5.78772C28.971 5.9832 28.7782 6.37141 28.7782 6.66326V11.6274C28.7782 11.9192 28.6818 12.2111 28.3899 12.5029L20.4063 20.5838C20.1144 20.8756 19.627 21.0711 19.2387 20.8756C18.2638 20.5838 17.1925 20.4874 16.1213 20.7793C13.9787 21.2666 12.3236 23.0177 11.8362 25.1597C10.9604 29.3447 14.5626 33.0451 18.8476 32.1695C20.9902 31.6822 22.7417 30.0275 23.2291 27.8855C23.521 26.8144 23.4246 25.7434 23.1327 24.7688C23.0363 24.3805 23.1327 23.8932 23.4246 23.6014C25.0797 21.9467 30.1442 16.8834 31.5073 15.5205C31.7029 15.325 31.9948 15.1323 32.3831 15.1323H37.3484C37.6403 15.1323 38.0313 15.0359 38.2241 14.7441L43.6769 9.29263C44.1643 8.8053 43.8724 7.92976 43.093 7.92976H37.2492C36.5663 7.92976 36.0816 7.34607 36.0816 6.66326H36.0788ZM28.1916 23.3095C28.7755 25.1597 28.7755 27.2026 28.1916 29.3447C27.024 33.5297 23.4191 36.7427 19.1368 37.3264C11.737 38.3974 5.50495 32.1668 6.57622 24.7688C7.16005 20.4847 10.3739 16.8834 14.5598 15.716C16.7023 15.1323 18.7457 15.2287 20.5964 15.716C20.8883 15.8124 21.0838 15.716 21.3757 15.5205L25.2697 11.6274C25.658 11.2392 25.5617 10.6527 25.0742 10.46C22.3478 9.09715 19.2304 8.51345 15.9202 8.8053C7.84027 9.68084 1.12074 16.107 0.145853 24.1878C-1.31372 35.6745 8.32495 45.3137 19.817 43.8544C27.8997 42.8798 34.3273 36.1645 35.1039 28.0837C35.3959 24.7743 34.812 21.6576 33.4488 18.9318C33.2533 18.4445 32.6695 18.4445 32.2812 18.7363L28.3872 22.6295C28.0952 22.8249 28.0952 23.1168 28.1916 23.3123V23.3095Z" fill="url(#paint0_radial_28_2550)"/>
<path d="M33.449 18.9289C33.2534 18.4416 32.6696 18.4416 32.2813 18.7335L28.3873 22.6266C28.1918 22.8221 28.0954 23.1139 28.1918 23.4058C28.7756 25.256 28.7756 27.2989 28.1918 29.4409C27.0241 33.6259 23.4192 36.839 19.1369 37.4227C11.7372 38.4937 5.50508 32.263 6.57635 24.865C7.16017 20.5809 10.374 16.9796 14.5599 15.8122C16.7025 15.2286 18.7459 15.3249 20.5965 15.8122C20.8884 15.9086 21.0839 15.8122 21.3758 15.6168L25.2699 11.7236C25.6582 11.3354 25.5618 10.749 25.0743 10.5563C22.348 9.19339 19.2305 8.60969 15.9204 8.90154C7.84039 9.68071 1.12086 16.1068 0.145976 24.1877C-1.31359 35.6743 8.32508 45.3135 19.8171 43.8543C27.8998 42.8796 34.3275 36.1644 35.1041 28.0836C35.396 24.7741 34.7158 21.6574 33.449 18.9317V18.9289Z" fill="#03BC85"/>
<path d="M50.2147 22.392C50.8481 22.0341 51.5724 21.8551 52.3876 21.8551C53.0705 21.8551 53.7039 21.9955 54.2878 22.2791C54.8716 22.5627 55.4031 22.995 55.885 23.5787L58.4324 21.2549C57.6998 20.3215 56.8214 19.6525 55.7969 19.245C54.7724 18.8375 53.5883 18.6338 52.2389 18.6338C50.7077 18.6338 49.3362 18.9559 48.13 19.5947C46.9211 20.2362 45.9682 21.1172 45.2687 22.2433C44.5692 23.3667 44.2195 24.6524 44.2195 26.1007C44.2195 27.5489 44.5692 28.8099 45.2687 29.936C45.9682 31.0593 46.9211 31.9431 48.13 32.5846C49.3362 33.2261 50.7077 33.5455 52.2389 33.5455C53.5883 33.5455 54.7752 33.3362 55.7969 32.9205C56.8214 32.5048 57.6998 31.8385 58.4324 30.9216L55.885 28.5979C55.4031 29.1816 54.8688 29.6138 54.2878 29.8974C53.7039 30.181 53.0705 30.3214 52.3876 30.3214C51.5724 30.3214 50.8481 30.1425 50.2147 29.7845C49.5813 29.4266 49.0856 28.931 48.7276 28.2978C48.3696 27.6645 48.1906 26.9321 48.1906 26.1007C48.1906 25.2692 48.3696 24.512 48.7276 23.8788C49.0856 23.2455 49.5813 22.7499 50.2147 22.392Z" fill="#4338A6"/>
<path d="M69.8997 21.244C69.5885 20.9026 69.2415 20.6107 68.8504 20.3822C68.0022 19.8838 67.0108 19.6333 65.8762 19.6333C64.6122 19.6333 63.4693 19.9169 62.4559 20.4813C61.4397 21.0485 60.6355 21.8469 60.0434 22.8794C59.4513 23.9119 59.1567 25.1371 59.1567 26.5523C59.1567 27.9674 59.4513 29.1679 60.0434 30.1976C60.6355 31.2301 61.4397 32.034 62.4559 32.6095C63.472 33.1849 64.6122 33.4712 65.8762 33.4712C67.0604 33.4712 68.0711 33.2207 68.911 32.7223C69.3544 32.4608 69.7399 32.1194 70.0732 31.7119V33.273H73.7964V19.8343H69.8997V21.2467V21.244ZM69.5114 28.5346C69.2029 29.0935 68.7926 29.5203 68.2749 29.8204C67.7599 30.1205 67.1843 30.2692 66.5509 30.2692C65.9175 30.2692 65.3172 30.1205 64.8022 29.8204C64.2845 29.5203 63.8741 29.0908 63.5657 28.5346C63.2572 27.9757 63.103 27.3149 63.103 26.5495C63.103 25.7841 63.2572 25.1013 63.5657 24.5506C63.8741 24 64.2872 23.576 64.8022 23.2759C65.3199 22.9758 65.901 22.8271 66.5509 22.8271C67.2008 22.8271 67.7599 22.9785 68.2749 23.2759C68.7926 23.576 69.2029 24 69.5114 24.5506C69.8198 25.1013 69.974 25.7648 69.974 26.5495C69.974 27.3342 69.8198 27.9785 69.5114 28.5346Z" fill="#4338A6"/>
<path d="M85.7897 26.4752C85.7897 27.2902 85.6575 27.9702 85.3904 28.5099C85.1232 29.0495 84.757 29.4515 84.2916 29.7075C83.8261 29.9636 83.2919 30.0957 82.6943 30.0957C81.8268 30.0957 81.1576 29.8342 80.6839 29.3083C80.2103 28.7852 79.9734 27.9647 79.9734 26.8496V19.8315H76.0767V27.4251C76.0767 28.8072 76.319 29.9443 76.8009 30.8336C77.2829 31.7257 77.9631 32.3865 78.8361 32.8187C79.7118 33.251 80.706 33.4685 81.8213 33.4685C82.854 33.4685 83.8069 33.2317 84.6826 32.7581C85.1948 32.4801 85.6272 32.1111 85.9935 31.6761V33.2703H89.692V19.8315H85.7952V26.4752H85.7897Z" fill="#4338A6"/>
<path d="M101.939 26.214C101.465 25.9386 100.936 25.7266 100.352 25.578C99.7685 25.4293 99.1902 25.3164 98.6146 25.2421C98.0391 25.1677 97.5103 25.0796 97.0284 24.9805C96.5464 24.8814 96.1581 24.7465 95.8662 24.5813C95.5743 24.4161 95.4311 24.1655 95.4311 23.8324C95.4311 23.4662 95.6322 23.1661 96.0315 22.9348C96.4308 22.7008 97.0642 22.5852 97.9289 22.5852C98.5458 22.5852 99.1819 22.6567 99.8401 22.7972C100.498 22.9376 101.151 23.2019 101.801 23.5846L103.101 20.8121C102.467 20.4293 101.677 20.1375 100.727 19.9393C99.7768 19.7383 98.846 19.6392 97.9289 19.6392C96.6291 19.6392 95.5137 19.8264 94.5829 20.2008C93.6493 20.5753 92.9388 21.0874 92.4459 21.7372C91.9529 22.3869 91.7078 23.1358 91.7078 23.9838C91.7078 24.7492 91.8538 25.3742 92.1457 25.856C92.4376 26.3379 92.8259 26.7233 93.3079 27.0042C93.7898 27.2877 94.324 27.4997 94.9051 27.6402C95.489 27.7806 96.0673 27.8935 96.6428 27.9761C97.2184 28.0587 97.7472 28.144 98.2291 28.2266C98.711 28.3092 99.0993 28.4303 99.3912 28.59C99.6832 28.7497 99.8264 28.9865 99.8264 29.3031C99.8264 29.6858 99.6391 29.9859 99.2646 30.2007C98.89 30.4182 98.2539 30.5256 97.3534 30.5256C96.5382 30.5256 95.7093 30.4044 94.8666 30.1649C94.0239 29.9226 93.2968 29.6115 92.68 29.2288L91.3801 32.0261C91.9942 32.4419 92.8314 32.7888 93.8917 33.0613C94.9492 33.3367 96.0535 33.4743 97.2019 33.4743C98.5513 33.4743 99.6942 33.2899 100.636 32.9237C101.578 32.5575 102.299 32.0536 102.798 31.4121C103.296 30.7706 103.547 30.0355 103.547 29.2013C103.547 28.4359 103.398 27.8164 103.098 27.3401C102.798 26.8665 102.412 26.492 101.936 26.2167L101.939 26.214Z" fill="#4338A6"/>
<path d="M115.207 20.4679C114.149 19.9089 112.963 19.6309 111.646 19.6309C110.33 19.6309 109.057 19.9255 107.972 20.5174C106.89 21.1094 106.036 21.9243 105.411 22.9651C104.786 24.0058 104.475 25.2007 104.475 26.5498C104.475 27.8989 104.792 29.0691 105.425 30.1098C106.058 31.1505 106.953 31.971 108.11 32.5712C109.267 33.1714 110.613 33.4688 112.145 33.4688C113.359 33.4688 114.436 33.2816 115.367 32.9071C116.3 32.5327 117.074 31.9958 117.691 31.2965L115.617 29.0498C115.166 29.4821 114.673 29.8069 114.13 30.0245C113.59 30.242 112.96 30.3493 112.244 30.3493C111.445 30.3493 110.748 30.2034 110.159 29.9116C109.567 29.6197 109.11 29.1957 108.785 28.6368C108.609 28.3339 108.485 28.0036 108.405 27.6511H118.567C118.583 27.4859 118.6 27.3042 118.616 27.1142C118.633 26.9243 118.641 26.7536 118.641 26.6021C118.641 25.1539 118.333 23.9094 117.716 22.8687C117.099 21.828 116.262 21.0295 115.204 20.4706L115.207 20.4679ZM109.911 23.0146C110.418 22.7228 111.007 22.5769 111.674 22.5769C112.34 22.5769 112.924 22.7228 113.422 23.0146C113.921 23.3065 114.312 23.7112 114.596 24.2261C114.783 24.5647 114.885 24.9584 114.948 25.3742H108.377C108.443 24.9612 108.545 24.573 108.727 24.2371C109.011 23.714 109.404 23.3037 109.914 23.0119L109.911 23.0146Z" fill="#4338A6"/>
<path d="M124.287 14.7354H120.39V33.2676H124.287V14.7354Z" fill="#4338A6"/>
<path d="M137.252 19.8319L133.454 28.9589L129.681 19.8319H125.658L131.477 33.3807L131.43 33.4936C131.163 34.0938 130.868 34.5205 130.543 34.7794C130.218 35.0382 129.781 35.1676 129.233 35.1676C128.85 35.1676 128.461 35.0932 128.07 34.9418C127.679 34.7931 127.332 34.5839 127.032 34.3168L125.608 37.0894C126.041 37.4721 126.6 37.7722 127.283 37.9869C127.966 38.2017 128.657 38.3118 129.356 38.3118C130.172 38.3118 130.918 38.1879 131.593 37.9374C132.267 37.6868 132.884 37.2545 133.441 36.6378C133.997 36.0211 134.495 35.1731 134.928 34.091L140.997 19.8291H137.249L137.252 19.8319Z" fill="#4338A6"/>
</g>
<defs>
<radialGradient id="paint0_radial_28_2550" cx="0" cy="0" r="1" gradientUnits="userSpaceOnUse" gradientTransform="translate(16.8758 26.4758) scale(32.2317 32.2243)">
<stop stop-color="#4338A6"/>
<stop offset="0.5" stop-color="#019B84"/>
<stop offset="0.8" stop-color="#02B484"/>
<stop offset="1" stop-color="#03BD85"/>
</radialGradient>
<clipPath id="clip0_28_2550">
<rect width="141" height="44" fill="white"/>
</clipPath>
</defs>
</svg>